<?xml version="1.0" encoding="iso-8859-1"?>
<!-- Generator: Adobe Illustrator 19.0.0, SVG Export Plug-In . SVG Version: 6.00 Build 0)  -->
<svg version="1.1" id="Layer_1" xmlns="http://www.w3.org/2000/svg" xmlns:xlink="http://www.w3.org/1999/xlink" x="0px" y="0px"
	 viewBox="0 0 512 512" style="enable-background:new 0 0 512 512;" xml:space="preserve">
<g>
	<g>
		<path d="M397.488,411.254l-25.428-25.428c-3.355-3.355-8.794-3.355-12.148,0c-3.355,3.355-3.355,8.794,0,12.148l18.651,18.651
			c-35.137,26.852-78.297,41.541-122.563,41.541c-111.474,0-202.166-90.692-202.166-202.166c0-44.266,14.689-87.426,41.541-122.562
			l62.493,62.493c-14.449,16.553-23.881,36.429-27.386,57.944c-6.287,38.588,5.78,76.389,33.107,103.713
			c22.574,22.57,52.293,34.727,83.701,34.726c6.614,0,13.306-0.539,20.018-1.635c21.498-3.506,41.372-12.94,57.924-27.385
			l8.727,8.727c3.355,3.355,8.794,3.355,12.148,0c3.355-3.355,3.355-8.794,0-12.148L100.746,114.512
			c-1.702-1.702-4.04-2.607-6.445-2.508c-2.405,0.104-4.655,1.212-6.205,3.055C54.923,154.515,36.653,204.57,36.653,256
			c0,120.948,98.399,219.347,219.347,219.347c51.43,0,101.485-18.269,140.942-51.443c1.843-1.55,2.951-3.799,3.055-6.205
			C400.1,415.294,399.19,412.956,397.488,411.254z M313.06,351.124c-13.958,11.902-30.587,19.674-48.517,22.598
			c-33.067,5.393-65.435-4.916-88.806-28.284c-23.371-23.368-33.685-55.734-28.297-88.799c2.924-17.946,10.69-34.579,22.598-48.538
			L313.06,351.124z"/>
	</g>
</g>
<g>
	<g>
		<path d="M256,0C114.841,0,0,114.841,0,256s114.841,256,256,256s256-114.841,256-256S397.159,0,256,0z M256,494.819
			C124.315,494.819,17.181,387.685,17.181,256S124.315,17.181,256,17.181S494.819,124.315,494.819,256S387.685,494.819,256,494.819z
			"/>
	</g>
</g>
<g>
	<g>
		<path d="M256,36.653c-51.43,0-101.485,18.269-140.942,51.443c-1.843,1.55-2.951,3.799-3.055,6.205
			c-0.103,2.405,0.806,4.743,2.508,6.445l25.428,25.428c3.355,3.355,8.794,3.355,12.148,0c3.355-3.355,3.355-8.794,0-12.148
			l-18.651-18.651C168.574,68.523,211.734,53.834,256,53.834c111.474,0,202.166,90.692,202.166,202.166
			c0,44.266-14.689,87.426-41.541,122.562l-59.535-59.535c2.917-7.086,5.136-14.439,6.593-21.922
			c5.291-27.168,1.341-54.298-11.422-78.456c-0.163-0.308-0.227-0.717-0.038-0.907l9.321-9.321c3.354-3.353,5.2-7.812,5.2-12.554
			s-1.846-9.201-5.2-12.554l-5.773-5.773l10.355-10.354c6.922-6.922,6.922-18.185,0-25.107l-9.95-9.95
			c-0.041-0.041-0.167-0.167-0.167-0.405c0-0.238,0.126-0.363,0.167-0.406l6.12-6.12c3.355-3.355,3.355-8.794,0-12.148
			c-3.355-3.355-8.794-3.355-12.148,0l-6.12,6.12c-6.922,6.922-6.922,18.185,0,25.107l9.95,9.95c0.223,0.223,0.223,0.586,0,0.81
			l-10.354,10.355l-5.773-5.773c-6.922-6.923-18.186-6.923-25.107,0l-9.323,9.323c-0.191,0.189-0.6,0.124-0.907-0.038
			c-24.164-12.766-51.301-16.716-78.47-11.42c-7.48,1.458-14.825,3.678-21.905,6.593l-24.097-24.097
			c-3.355-3.355-8.794-3.355-12.148,0c-3.355,3.355-3.355,8.794,0,12.148l245.361,245.361c1.614,1.615,3.8,2.516,6.074,2.516
			c0.124,0,0.247-0.002,0.371-0.008c2.405-0.104,4.655-1.212,6.205-3.055c33.173-39.456,51.443-89.511,51.443-140.941
			C475.347,135.052,376.948,36.653,256,36.653z M349.397,196.271l-9.321,9.321c-5.536,5.536-6.743,14.007-3.006,21.083
			c10.91,20.652,14.282,43.87,9.749,67.146c-0.779,3.999-1.818,7.955-3.094,11.84L215.5,177.436c3.882-1.274,7.835-2.311,11.83-3.09
			c23.278-4.536,46.5-1.166,67.158,9.747c7.074,3.739,15.548,2.53,21.081-3.004l9.323-9.323c0.223-0.222,0.586-0.222,0.81,0
			l23.695,23.695C349.62,195.685,349.62,196.048,349.397,196.271z"/>
	</g>
</g>
<g>
	<g>
		<path d="M273.484,343.182c-1.182-4.594-5.87-7.363-10.461-6.178c-5.255,1.353-10.7,2.039-16.186,2.039
			c-23.022,0-44.498-12.392-56.05-32.34c-2.377-4.106-7.634-5.505-11.739-3.129c-4.105,2.378-5.507,7.633-3.129,11.739
			c14.613,25.235,41.787,40.911,70.918,40.911c6.929,0,13.816-0.868,20.469-2.581C271.899,352.46,274.666,347.776,273.484,343.182z"
			/>
	</g>
</g>
<g>
	<g>
		<path d="M177.981,247.68c-4.593-1.182-9.278,1.583-10.461,6.178c-1.712,6.654-2.581,13.54-2.581,20.469
			c0,4.744,3.846,8.591,8.591,8.591c4.744,0,8.591-3.846,8.591-8.591c0-5.485,0.686-10.931,2.039-16.186
			C185.343,253.547,182.577,248.863,177.981,247.68z"/>
	</g>
</g>
<g>
</g>
<g>
</g>
<g>
</g>
<g>
</g>
<g>
</g>
<g>
</g>
<g>
</g>
<g>
</g>
<g>
</g>
<g>
</g>
<g>
</g>
<g>
</g>
<g>
</g>
<g>
</g>
<g>
</g>
</svg>
